/* XPM */
static char *_[] = {
"32 32 64 1",
"  c None",
"! c #0055ff",
"# c #0055ff",
"$ c #0055ff",
"% c #0055ff",
"& c #0055ff",
"' c #0055ff",
"( c #0055ff",
") c #0055ff",
"* c #0055ff",
"+ c #7086ff",
", c #bbc3ff",
"- c #dfe3ff",
". c #f4f5ff",
"/ c #ffffff",
"0 c #0055ff",
"1 c #0055ff",
"2 c #7b8eff",
"3 c #dde1ff",
"4 c #0055ff",
"5 c #1e5aff",
"6 c #bfc6ff",
"7 c #fefeff",
"8 c #0055ff",
"9 c #3161ff",
": c #d9ddff",
"; c #0055ff",
"< c #1458ff",
"= c #d6dbff",
"> c #0055ff",
"? c #b6beff",
"@ c #0055ff",
"A c #6880ff",
"B c #fcfcff",
"C c #0055ff",
"D c #d2d6ff",
"E c #0055ff",
"F c #5573ff",
"G c #fdfdff",
"H c #0055ff",
"I c #acb6ff",
"J c #9ca9ff",
"K c #d5d9ff",
"L c #bcc3ff",
"M c #8293ff",
"N c #f9faff",
"O c #e5e7ff",
"P c #4269ff",
"Q c #0055ff",
"R c #d6daff",
"S c #f3f4ff",
"T c #8f9eff",
"U c #a7b2ff",
"V c #7f91ff",
"W c #6e85ff",
"X c #0055ff",
"Y c #eeefff",
"Z c #b1baff",
"[ c #0055ff",
"] c #fbfbff",
"^ c #5c78ff",
"_ c #0055ff",
"` c #e3e6ff",
"a c #cbd1ff",
"                  !#            ",
"          $%&'(('&%$            ",
"        )*+,-.//.-,+*)          ",
"      0123//////////3210        ",
"     4567////////////7654       ",
"    89:////////////////:98      ",
"   ;<=//////////////////=<;     ",
"   >?////////////////////?>     ",
"  @AB////////////////////BA@    ",
"  CD//////////////////////DC    ",
" EFG//////////////////////GFE   ",
" HI///JJ//KLK(((MN/OP((K///IH   ",
" QR//STTS///KL//UOSVS/SWO//RQ   ",
" XY//LLLK/KLKL//ZSKL///////YX   ",
" []/NTOOTNKLK(((^SLK///////][   ",
" _//OP((POKLKL//LLKL///`S///_   ",
" []/JK//KLKLKL//LKSWO/NMK//][   ",
" XYSVS//SVaLK(((MN/OP((K///YX   ",
" QR////////////////////////RQ   ",
" HI////////////////////////IH   ",
" EFG//////////////////////GFE   ",
"  CD//////////////////////DC    ",
"  @AB////////////////////BA@    ",
"   >?////////////////////?>     ",
"   ;<=//////////////////=<;     ",
"    89:////////////////:98      ",
"     4567////////////7654       ",
"      0123//////////3210        ",
"        )*+,-.//.-,+*)          ",
"          $%&'(('&%$            ",
"                                ",
"                                "
};
