/* XPM */
static char *_[] = {
"64 64 105 2",
"   c None",
"!  c #0055ff",
"#  c #0055ff",
"$  c #0055ff",
"%  c #0055ff",
"&  c #0055ff",
"'  c #0055ff",
"(  c #0055ff",
")  c #0055ff",
"*  c #0055ff",
"+  c #0055ff",
",  c #0055ff",
"-  c #0055ff",
".  c #0756ff",
"/  c #6e84ff",
"0  c #a6b1ff",
"1  c #c7cdff",
"2  c #dde1ff",
"3  c #edefff",
"4  c #f7f8ff",
"5  c #fdfdff",
"6  c #ffffff",
"7  c #0055ff",
"8  c #0055ff",
"9  c #1257ff",
":  c #8999ff",
";  c #cad0ff",
"<  c #f2f3ff",
"=  c #0055ff",
">  c #3e67ff",
"?  c #b1baff",
"@  c #eff0ff",
"A  c #0055ff",
"B  c #0055ff",
"C  c #2e5fff",
"D  c #b3bcff",
"E  c #f6f7ff",
"F  c #0055ff",
"G  c #0055ff",
"H  c #8b9bff",
"I  c #eeefff",
"J  c #0055ff",
"K  c #3060ff",
"L  c #0055ff",
"M  c #5b78ff",
"N  c #e6e8ff",
"O  c #0055ff",
"P  c #7187ff",
"Q  c #0055ff",
"R  c #7589ff",
"S  c #0055ff",
"T  c #667fff",
"U  c #f4f5ff",
"V  c #0055ff",
"W  c #446aff",
"X  c #eceeff",
"Y  c #0055ff",
"Z  c #0055ff",
"[  c #d7dbff",
"]  c #0055ff",
"^  c #5473ff",
"_  c #f8f8ff",
"`  c #0055ff",
"a  c #cdd3ff",
"b  c #0055ff",
"c  c #6d84ff",
"d  c #fefeff",
"e  c #0055ff",
"f  c #ced3ff",
"g  c #0055ff",
"h  c #4e70ff",
"i  c #fcfcff",
"j  c #0055ff",
"k  c #afb8ff",
"l  c #0055ff",
"m  c #e2e5ff",
"n  c #9ca9ff",
"o  c #bcc3ff",
"p  c #f3f4ff",
"q  c #5c78ff",
"r  c #d5d9ff",
"s  c #4269ff",
"t  c #e5e7ff",
"u  c #f9faff",
"v  c #8293ff",
"w  c #0055ff",
"x  c #486cff",
"y  c #919fff",
"z  c #0055ff",
"{  c #98a5ff",
"|  c #0055ff",
"}  c #c0c7ff",
"~  c #e3e6ff",
" ! c #0055ff",
"!! c #d9ddff",
"#! c #0055ff",
"$! c #ebedff",
"%! c #0055ff",
"&! c #f5f6ff",
"'! c #e8eaff",
"(! c #355bf8",
")! c #415ef5",
"*! c #1457fe",
"+! c #7b70d2",
",! c #315af9",
"                                                                                                                                ",
"                                                                                                                                ",
"                                                                                                                                ",
"                                                                                                                                ",
"                                                                                                                                ",
"                                                                                                                                ",
"                                                  ! # $ % & ' ( ) * ) ( ' & % $ # !                                             ",
"                                            + , - . / 0 1 2 3 4 5 6 5 4 3 2 1 0 / . - , +                                       ",
"                                        7 8 9 : ; < 6 6 6 6 6 6 6 6 6 6 6 6 6 6 6 < ; : 9 8 7                                   ",
"                                    = % > ? @ 6 6 6 6 6 6 6 6 6 6 6 6 6 6 6 6 6 6 6 6 6 @ ? > % =                               ",
"                                A B C D E 6 6 6 6 6 6 6 6 6 6 6 6 6 6 6 6 6 6 6 6 6 6 6 6 6 E D C B A                           ",
"                              F G H I 6 6 6 6 6 6 6 6 6 6 6 6 6 6 6 6 6 6 6 6 6 6 6 6 6 6 6 6 6 I H G F                         ",
"                            J K 1 6 6 6 6 6 6 6 6 6 6 6 6 6 6 6 6 6 6 6 6 6 6 6 6 6 6 6 6 6 6 6 6 6 1 K J                       ",
"                          L M N 6 6 6 6 6 6 6 6 6 6 6 6 6 6 6 6 6 6 6 6 6 6 6 6 6 6 6 6 6 6 6 6 6 6 6 N M L                     ",
"                        O P < 6 6 6 6 6 6 6 6 6 6 6 6 6 6 6 6 6 6 6 6 6 6 6 6 6 6 6 6 6 6 6 6 6 6 6 6 6 < P O                   ",
"                      Q R E 6 6 6 6 6 6 6 6 6 6 6 6 6 6 6 6 6 6 6 6 6 6 6 6 6 6 6 6 6 6 6 6 6 6 6 6 6 6 6 E R Q                 ",
"                    S T U 6 6 6 6 6 6 6 6 6 6 6 6 6 6 6 6 6 6 6 6 6 6 6 6 6 6 6 6 6 6 6 6 6 6 6 6 6 6 6 6 6 U T S               ",
"                  V W X 6 6 6 6 6 6 6 6 6 6 6 6 6 6 6 6 6 6 6 6 6 6 6 6 6 6 6 6 6 6 6 6 6 6 6 6 6 6 6 6 6 6 6 X W V             ",
"                Y Z [ 6 6 6 6 6 6 6 6 6 6 6 6 6 6 6 6 6 6 6 6 6 6 6 6 6 6 6 6 6 6 6 6 6 6 6 6 6 6 6 6 6 6 6 6 6 [ Z Y           ",
"                ] 0 6 6 6 6 6 6 6 6 6 6 6 6 6 6 6 6 6 6 6 6 6 6 6 6 6 6 6 6 6 6 6 6 6 6 6 6 6 6 6 6 6 6 6 6 6 6 6 0 ]           ",
"              V ^ _ 6 6 6 6 6 6 6 6 6 6 6 6 6 6 6 6 6 6 6 6 6 6 6 6 6 6 6 6 6 6 6 6 6 6 6 6 6 6 6 6 6 6 6 6 6 6 6 _ ^ V         ",
"              ` a 6 6 6 6 6 6 6 6 6 6 6 6 6 6 6 6 6 6 6 6 6 6 6 6 6 6 6 6 6 6 6 6 6 6 6 6 6 6 6 6 6 6 6 6 6 6 6 6 6 a `         ",
"            b c d 6 6 6 6 6 6 6 6 6 6 6 6 6 6 6 6 6 6 6 6 6 6 6 6 6 6 6 6 6 6 6 6 6 6 6 6 6 6 6 6 6 6 6 6 6 6 6 6 6 d c b       ",
"            e f 6 6 6 6 6 6 6 6 6 6 6 6 6 6 6 6 6 6 6 6 6 6 6 6 6 6 6 6 6 6 6 6 6 6 6 6 6 6 6 6 6 6 6 6 6 6 6 6 6 6 6 f e       ",
"          g h i 6 6 6 6 6 6 6 6 6 6 6 6 6 6 6 6 6 6 6 6 6 6 6 6 6 6 6 6 6 6 6 6 6 6 6 6 6 6 6 6 6 6 6 6 6 6 6 6 6 6 6 i h g     ",
"          j k 6 6 6 6 6 6 6 6 6 6 6 6 6 6 6 6 6 6 6 6 6 6 6 6 6 6 6 6 6 6 6 6 6 6 6 6 6 6 6 6 6 6 6 6 6 6 6 6 6 6 6 6 6 k j     ",
"          l m 6 6 6 6 6 6 6 6 6 6 6 6 n * o 6 6 6 6 p q r 6 6 n * * * * * s t 6 6 6 6 6 u v * * * v u 6 6 6 6 6 6 6 6 6 m l     ",
"        w x d 6 6 6 6 6 6 6 6 6 6 6 t q y q p 6 6 6 6 6 6 6 6 n v u 6 6 6 o s t 6 6 6 r * o 6 6 6 n s t 6 6 6 6 6 6 6 6 d x w   ",
"        z { 6 6 6 6 6 6 6 6 6 6 6 6 o q [ s r 6 6 6 6 6 6 6 6 n v u 6 6 6 p q o 6 6 t s r 6 6 6 6 u v v u 6 6 6 6 6 6 6 6 { z   ",
"        | } 6 6 6 6 6 6 6 6 6 6 6 u v n u v n 6 6 6 p q r 6 6 n v u 6 6 6 p q r 6 6 o v u 6 6 6 6 6 ~ p 6 6 6 6 6 6 6 6 6 } |   ",
"         !!!6 6 6 6 6 6 6 6 6 6 6 r s t 6 o s t 6 6 p q r 6 6 n v u 6 6 6 o n 6 6 u v n 6 6 6 6 6 6 6 6 6 6 6 6 6 6 6 6 6 !! !  ",
"        #!$!6 6 6 6 6 6 6 6 6 6 6 n v u 6 p q o 6 6 p q r 6 6 n * * * * * * v u 6 p q o 6 6 6 6 6 6 6 6 6 6 6 6 6 6 6 6 6 $!#!  ",
"        %!&!6 6 6 6 6 6 6 6 6 6 t s o 6 6 6 n q p 6 p q r 6 6 n v u 6 6 6 r * n 6 p q o 6 6 6 6 6 6 6 6 6 6 6 6 6 6 6 6 6 &!%!  ",
"        * 6 6 6 6 6 6 6 6 6 6 6 o * * * * * * * r 6 p q r 6 6 n v u 6 6 6 6 n q p u v n 6 6 6 6 6 6 6 6 6 6 6 6 6 6 6 6 6 6 *   ",
"        * 6 6 6 6 6 6 6 6 6 6 u v n 6 6 6 6 p q n 6 p q r 6 6 n v u 6 6 6 6 o q p 6 o v u 6 6 6 6 6 r * r 6 6 6 6 6 6 6 6 6 *   ",
"        * 6 6 6 6 6 6 6 6 6 6 r s t 6 6 6 6 6 o s t p q r 6 6 n v u 6 6 6 6 n v u 6 t s r 6 6 6 6 u v v u 6 6 6 6 6 6 6 6 6 *   ",
"        %!&!6 6 6 6 6 6 6 6 6 n v u 6 6 6 6 6 t s o p q r 6 6 n v u 6 6 6 r * r 6 6 6 r * o 6 6 u v s t 6 6 6 6 6 6 6 6 6 &!%!  ",
"        #!$!6 6 6 6 6 6 6 6 t s r 6 6 6 6 6 6 6 n q '!q r 6 6 n * * * * * s t 6 6 6 6 6 p q * * * v u 6 6 6 6 6 6 6 6 6 6 $!#!  ",
"         !!!6 6 6 6 6 6 6 6 6 6 6 6 6 6 6 6 6 6 6 6 6 6 6 6 6 6 6 6 6 6 6 6 6 6 6 6 6 6 6 6 6 6 6 6 6 6 6 6 6 6 6 6 6 6 6 !! !  ",
"        | } 6 6 6 6 6 6 6 6 6 6 6 6 6 6 6 6 6 6 6 6 6 6 6 6 6 6 6 6 6 6 6 6 6 6 6 6 6 6 6 6 6 6 6 6 6 6 6 6 6 6 6 6 6 6 6 } |   ",
"        z { 6 6 6 6 6 6 6 6 6 6 6 6 6 6 6 6 6 6 6 6 6 6 6 6 6 6 6 6 6 6 6 6 6 6 6 6 6 6 6 6 6 6 6 6 6 6 6 6 6 6 6 6 6 6 6 { z   ",
"        w x d 6 6 6 6 6 6 6 6 6 6 6 6 6 6 6 6 6 6 6 6 6 6 6 6 6 6 6 6 6 6 6 6 6 6 6 6 6 6 6 6 6 6 6 6 6 6 6 6 6 6 6 6 6 d x w   ",
"          l m 6 6 6 6 6 6 6 6 6 6 6 6 6 6 6 6 6 6 6 6 6 6 6 6 6 6 6 6 6 6 6 6 6 6 6 6 6 6 6 6 6 6 6 6 6 6 6 6 6 6 6 6 6 m l     ",
"          j k 6 6 6 6 6 6 6 6 6 6 6 6 6 6 6 6 6 6 6 6 6 6 6 6 6 6 6 6 6 6 6 6 6 6 6 6 6 6 6 6 6 6 6 6 6 6 6 6 6 6 6 6 6 k j     ",
"          g h i 6 6 6 6 6 6 6 6 6 6 6 6 6 6 6 6 6 6 6 6 6 6 6 6 6 6 6 6 6 6 6 6 6 6 6 6 6 6 6 6 6 6 6 6 6 6 6 6 6 6 6 i h g     ",
"            e f 6 6 6 6 6 6 6 6 6 6 6 6 6 6 6 6 6 6 6 6 6 6 6 6 6 6 6 6 6 6 6 6 6 6 6 6 6 6 6 6 6 6 6 6 6 6 6 6 6 6 6 f e       ",
"            b c d 6 6 6 6 6 6 6 6 6 6 6 6 6 6 6 6 6 6 6 6 6 6 6 6 6 6 6 6 6 6 6 6 6 6 6 6 6 6 6 6 6 6 6 6 6 6 6 6 6 d c b       ",
"              ` a 6 6 6 6 6 6 6 6 6 6 6 6 6 6 6 6 6 6 6 6 6 6 6 6 6 6 6 6 6 6 6 6 6 6 6 6 6 6 6 6 6 6 6 6 6 6 6 6 6 a `         ",
"              V ^ _ 6 6 6 6 6 6 6 6 6 6 6 6 6 6 6 6 6 6 6 6 6 6 6 6 6 6 6 6 6 6 6 6 6 6 6 6 6 6 6 6 6 6 6 6 6 6 6 _ ^ V         ",
"                ] 0 6 6 6 6 6 6 6 6 6 6 6 6 6 6 6 6 6 6 6 6 6 6 6 6 6 6 6 6 6 6 6 6 6 6 6 6 6 6 6 6 6 6 6 6 6 6 6 0 ]           ",
"                Y Z [ 6 6 6 6 6 6 6 6 6 6 6 6 6 6 6 6 6 6 6 6 6 6 6 6 6 6 6 6 6 6 6 6 6 6 6 6 6 6 6 6 6 6 6 6 6 [ Z Y           ",
"                  V W X 6 6 6 6 6 6 6 6 6 6 6 6 6 6 6 6 6 6 6 6 6 6 6 6 6 6 6 6 6 6 6 6 6 6 6 6 6 6 6 6 6 6 6 X W V             ",
"                    S T U 6 6 6 6 6 6 6 6 6 6 6 6 6 6 6 6 6 6 6 6 6 6 6 6 6 6 6 6 6 6 6 6 6 6 6 6 6 6 6 6 6 U T S               ",
"                      Q R E 6 6 6 6 6 6 6 6 6 6 6 6 6 6 6 6 6 6 6 6 6 6 6 6 6 6 6 6 6 6 6 6 6 6 6 6 6 6 6 E R Q                 ",
"                        O P < 6 6 6 6 6 6 6 6 6 6 6 6 6 6 6 6 6 6 6 6 6 6 6 6 6 6 6 6 6 6 6 6 6 6 6 6 6 < P O                   ",
"                          L M N 6 6 6 6 6 6 6 6 6 6 6 6 6 6 6 6 6 6 6 6 6 6 6 6 6 6 6 6 6 6 6 6 6 6 6 N M L                     ",
"                            J K 1 6 6 6 6 6 6 6 6 6 6 6 6 6 6 6 6 6 6 6 6 6 6 6 6 6 6 6 6 6 6 6 6 6 1 K J                       ",
"                              F G H I 6 6 6 6 6 6 6 6 6 6 6 6 6 6 6 6 6 6 6 6 6 6 6 6 6 6 6 6 6 I H G F                         ",
"                                A B C D E 6 6 6 6 6 6 6 6 6 6 6 6 6 6 6 6 6 6 6 6 6 6 6 6 6 E D C B A                           ",
"                                    = % > ? @ 6 6 6 6 6 6 6 6 6 6 6 6 6 6 6 6 6 6 6 6 6 @ ? > % =                               ",
"                                        7 8 9 : ; < 6 6 6 6 6 6 6 6 6 6 6 6 6 6 6 < ; : 9 8 7                                   ",
"                                            + (!)!*!/ 0 1 2 3 4 5 6 5 4 3 2 1 0 / . - , +                                       ",
"                                                  ! # +!,!& ' ( ) * ) ( ' & % $ # !                                             ",
"                                                                                                                                "
};
