/* XPM */
static char *_[] = {
"16 16 32 1",
"  c None",
"! c #0055ff",
"# c #0055ff",
"$ c #0055ff",
"% c #0055ff",
"& c #0055ff",
"' c #0055ff",
"( c #0055ff",
") c #8b9aff",
"* c #d7dbff",
"+ c #f5f6ff",
", c #fefeff",
"- c #245cff",
". c #cdd2ff",
"/ c #ffffff",
"0 c #0055ff",
"1 c #8b9bff",
"2 c #0055ff",
"3 c #d6daff",
"4 c #0055ff",
"5 c #f6f7ff",
"6 c #f3f4ff",
"7 c #c5cbff",
"8 c #e4e7ff",
"9 c #ced3ff",
": c #ebedff",
"; c #d5d9ff",
"< c #c6ccff",
"= c #0055ff",
"> c #e0e3ff",
"? c #f9faff",
"@ c #dde0ff",
"   !#$%&%$#!    ",
"  '()*+,+*)('   ",
" '-.///////.-'  ",
"!(./////////.(! ",
"01///////////10 ",
"23///////////32 ",
"45/67/899:;<;54 ",
"=//;76;77>7///= ",
"45?;8;;79@;;;54 ",
"23///////////32 ",
"01///////////10 ",
"!(./////////.(! ",
" '-.///////.-'  ",
"  '()*+,+*)('   ",
"   !#$%&%$#!    ",
"                "
};
